<?xml version="1.0" standalone="no"?>
<!DOCTYPE svg PUBLIC "-//W3C//DTD SVG 20010904//EN"
 "http://www.w3.org/TR/2001/REC-SVG-20010904/DTD/svg10.dtd">
<svg version="1.0" xmlns="http://www.w3.org/2000/svg"
 width="512.000000pt" height="512.000000pt" viewBox="0 0 512.000000 512.000000"
 preserveAspectRatio="xMidYMid meet">

<g transform="translate(0.000000,512.000000) scale(0.100000,-0.100000)"
fill="#000000" stroke="none">
<path d="M1506 4389 c-201 -26 -403 -110 -566 -234 -81 -62 -208 -199 -264
-285 -81 -122 -138 -260 -173 -413 -32 -141 -18 -505 23 -604 9 -22 21 -34 41
-38 15 -4 34 -8 41 -11 17 -5 62 40 62 63 0 10 -7 67 -16 128 -22 151 -15 378
16 490 45 167 128 311 253 442 131 137 296 235 477 285 74 20 107 23 260 22
161 0 182 -2 265 -27 230 -70 371 -169 566 -395 28 -34 42 -42 69 -42 27 0 41
8 69 42 195 226 336 325 566 395 83 25 104 27 265 27 187 1 226 -6 375 -61 55
-21 85 -41 139 -92 261 -249 390 -616 346 -981 -14 -111 -51 -263 -90 -372
l-32 -88 -343 0 c-225 0 -352 -4 -367 -11 -13 -6 -59 -59 -104 -119 l-81 -109
-137 345 c-93 233 -145 349 -159 359 -31 22 -75 19 -100 -8 -16 -16 -68 -171
-182 -539 -88 -284 -163 -514 -166 -510 -3 4 -96 311 -207 682 -154 515 -207
679 -223 693 -30 24 -75 22 -102 -5 -16 -17 -70 -176 -191 -565 -93 -299 -172
-543 -175 -543 -3 0 -41 69 -83 153 -58 115 -84 156 -103 165 -30 14 -272 15
-970 5 -452 -6 -468 -7 -486 -27 -36 -38 -19 -95 35 -116 17 -6 139 -10 311
-10 l283 0 11 -32 c18 -53 148 -275 223 -382 209 -293 492 -576 833 -831 335
-251 799 -526 862 -510 60 15 385 202 602 347 445 298 855 689 1092 1041 72
107 79 129 51 166 l-21 28 45 87 45 86 324 0 c200 0 334 4 351 10 55 21 71 78
34 118 -20 22 -26 22 -292 22 -253 0 -270 1 -265 18 72 243 91 363 91 567 0
151 -3 182 -26 275 -77 304 -250 551 -503 716 -462 301 -1055 243 -1455 -142
l-90 -87 -90 87 c-262 252 -611 370 -964 325z m784 -2009 c154 -515 204 -669
221 -682 30 -25 75 -23 102 5 16 16 69 173 187 554 91 293 167 533 170 533 3
0 56 -130 119 -288 63 -158 121 -297 129 -310 8 -12 25 -25 38 -28 52 -13 71
3 190 161 l116 155 280 0 280 0 -27 -47 c-300 -524 -853 -1014 -1587 -1407
l-107 -57 -128 77 c-608 366 -1086 806 -1356 1250 -53 88 -97 168 -97 179 0 3
128 5 285 5 l285 0 115 -230 c66 -131 123 -234 134 -240 27 -14 63 -13 87 4
16 11 60 142 185 541 113 362 166 520 172 508 4 -10 97 -317 207 -683z"/>
</g>
</svg>
